<?xml version="1.0" standalone="no"?>
<!DOCTYPE svg PUBLIC "-//W3C//DTD SVG 20010904//EN"
 "http://www.w3.org/TR/2001/REC-SVG-20010904/DTD/svg10.dtd">
<svg version="1.0" xmlns="http://www.w3.org/2000/svg"
 width="260.000000pt" height="260.000000pt" viewBox="0 0 260.000000 260.000000"
 preserveAspectRatio="xMidYMid meet">
<metadata>
Created by potrace 1.11, written by Peter Selinger 2001-2013
</metadata>
<g transform="translate(0.000000,260.000000) scale(0.100000,-0.100000)"
fill="#000000" stroke="none">
<path d="M223 1890 c-12 -10 -24 -28 -28 -40 -9 -28 15 -72 48 -88 75 -36 142
64 82 123 -29 30 -73 32 -102 5z"/>
<path d="M510 1845 c0 -10 10 -15 34 -15 49 0 82 -15 102 -46 16 -24 18 -65
19 -433 0 -223 -2 -421 -6 -440 -11 -50 -39 -73 -98 -79 -34 -3 -51 -9 -51
-18 0 -12 69 -14 413 -14 l412 0 40 132 c50 166 49 158 33 158 -7 0 -23 -21
-35 -47 -30 -66 -77 -119 -126 -145 -37 -20 -62 -23 -200 -26 -86 -2 -169 -1
-183 2 -47 12 -50 33 -49 473 1 431 1 433 48 462 11 7 44 15 73 18 36 4 54 10
54 19 0 11 -44 14 -240 14 -207 0 -240 -2 -240 -15z"/>
<path d="M1657 1691 c-31 -67 -103 -152 -159 -187 -21 -14 -36 -29 -33 -34 3
-6 31 -10 61 -10 l54 0 0 -275 c0 -151 0 -278 1 -282 4 -31 43 -83 73 -97 75
-36 157 -6 214 79 28 41 31 51 18 53 -9 2 -26 -8 -37 -22 -12 -15 -35 -28 -56
-32 -32 -6 -40 -3 -60 20 -23 27 -23 29 -23 292 l0 264 83 0 c82 0 83 0 83 25
0 14 -6 26 -13 26 -7 1 -40 3 -73 4 -33 1 -64 3 -70 4 -6 1 -10 47 -10 116 0
135 -11 147 -53 56z"/>
<path d="M200 1497 c-113 -47 -139 -74 -63 -69 65 5 67 -4 69 -283 1 -132 -3
-252 -8 -268 -11 -31 -35 -47 -72 -47 -16 0 -26 -6 -26 -15 0 -13 26 -15 173
-15 148 0 174 2 174 15 0 10 -10 15 -29 15 -42 0 -78 40 -79 87 0 21 -1 168
-2 328 -2 249 -4 290 -17 292 -8 1 -62 -17 -120 -40z"/>
<path d="M2202 1524 c-182 -53 -280 -228 -250 -447 37 -272 310 -389 492 -211
57 55 120 201 91 211 -6 1 -21 -17 -34 -42 -49 -92 -118 -136 -208 -131 -132
8 -227 156 -219 344 6 152 103 255 216 231 43 -9 68 -39 77 -92 11 -71 75
-108 132 -77 27 14 34 65 15 103 -49 96 -191 147 -312 111z"/>
</g>
</svg>
